<?xml version="1.0" standalone="no"?>
<!DOCTYPE svg PUBLIC "-//W3C//DTD SVG 20010904//EN"
 "http://www.w3.org/TR/2001/REC-SVG-20010904/DTD/svg10.dtd">
<svg version="1.0" xmlns="http://www.w3.org/2000/svg"
 width="1200.000000pt" height="1200.000000pt" viewBox="0 0 1200.000000 1200.000000"
 preserveAspectRatio="xMidYMid meet">
<metadata>
Created by potrace 1.14, written by Peter Selinger 2001-2017
</metadata>
<g transform="translate(0.000000,1200.000000) scale(0.100000,-0.100000)"
fill="#000000" stroke="none">
<path d="M10105 11370 c3 -6 -1 -13 -9 -16 -9 -3 -13 -10 -10 -15 3 -5 -2 -9
-10 -9 -9 0 -15 -6 -13 -12 1 -7 -4 -12 -11 -10 -8 1 -11 -2 -7 -8 3 -5 -1
-13 -9 -16 -9 -3 -16 -15 -16 -25 0 -10 -4 -18 -9 -16 -5 1 -10 -2 -12 -8 -2
-5 -19 -26 -39 -45 -19 -19 -34 -38 -32 -42 2 -8 -13 -12 -30 -9 -5 0 -7 -2
-7 -6 3 -20 -2 -34 -11 -28 -6 3 -10 -4 -10 -17 0 -18 -2 -20 -10 -8 -7 11
-10 11 -10 2 0 -7 -4 -10 -10 -7 -6 4 -7 -1 -3 -11 4 -11 3 -15 -5 -10 -6 3
-16 -3 -22 -14 -6 -11 -16 -17 -22 -14 -7 5 -9 2 -5 -9 3 -9 3 -16 -1 -15 -13
2 -42 -14 -37 -21 2 -4 -9 -15 -26 -25 -18 -10 -27 -22 -22 -29 4 -7 -1 -6
-10 2 -15 12 -17 12 -11 -4 5 -13 4 -16 -4 -11 -7 4 -23 -4 -37 -20 -14 -15
-25 -23 -25 -18 0 5 -5 1 -11 -9 -6 -9 -14 -15 -20 -12 -5 4 -9 -1 -9 -10 0
-9 -4 -14 -9 -11 -5 3 -11 -1 -15 -9 -3 -8 -12 -15 -21 -15 -8 0 -15 -5 -15
-11 0 -6 -9 -9 -19 -6 -14 3 -18 1 -14 -9 3 -9 -2 -14 -16 -14 -12 0 -21 -4
-21 -10 0 -5 -8 -10 -17 -10 -15 0 -15 -2 -4 -9 11 -7 9 -10 -10 -13 -13 -2
-23 -9 -22 -15 2 -7 -4 -10 -12 -7 -9 4 -21 1 -29 -5 -7 -6 -17 -7 -21 -3 -5
4 -5 1 -1 -5 4 -8 1 -13 -9 -13 -9 0 -14 -4 -11 -9 7 -11 -22 -23 -35 -15 -5
3 -9 0 -9 -6 0 -6 -4 -8 -10 -5 -5 3 -10 -2 -10 -11 0 -10 -3 -14 -7 -11 -3 4
-13 1 -21 -6 -13 -10 -14 -9 -7 2 6 10 4 12 -4 7 -7 -5 -10 -13 -8 -20 3 -6
-6 -12 -19 -12 -14 -1 -21 2 -17 9 3 6 1 7 -5 3 -7 -4 -12 -14 -12 -22 0 -8
-3 -13 -7 -13 -22 4 -41 -3 -61 -21 -14 -13 -22 -16 -22 -8 0 10 -2 10 -9 -1
-5 -7 -14 -10 -20 -7 -6 4 -14 0 -17 -8 -3 -9 -10 -14 -14 -11 -4 3 -11 -2
-14 -11 -4 -9 -13 -14 -21 -10 -8 3 -15 1 -15 -4 0 -5 -8 -6 -17 -3 -12 5 -15
2 -11 -8 4 -10 -1 -16 -18 -17 -45 -3 -53 -5 -49 -13 6 -9 -24 -23 -63 -27 -7
-1 -11 -6 -8 -11 3 -4 -5 -7 -17 -7 -12 1 -32 -7 -44 -18 -13 -11 -23 -14 -23
-8 0 7 -5 12 -11 12 -6 0 -9 -6 -6 -14 4 -11 0 -13 -15 -11 -11 3 -32 -4 -46
-15 -28 -23 -47 -26 -36 -7 6 9 5 9 -8 0 -8 -7 -18 -9 -22 -5 -4 4 -7 2 -6 -3
5 -22 -1 -27 -17 -14 -11 10 -14 10 -9 2 6 -12 -5 -18 -26 -14 -5 0 -8 -4 -8
-10 0 -7 -9 -9 -21 -6 -12 3 -22 0 -25 -8 -3 -7 -15 -12 -26 -10 -15 3 -18 0
-14 -12 5 -13 4 -14 -9 -3 -12 10 -15 10 -15 0 0 -7 -7 -10 -15 -6 -8 3 -15 1
-15 -5 0 -6 -4 -7 -10 -4 -5 3 -20 -1 -32 -8 -13 -8 -31 -13 -40 -12 -10 2
-17 0 -17 -3 3 -19 -3 -22 -22 -11 -17 9 -20 8 -14 -2 6 -9 3 -11 -8 -6 -12 4
-17 1 -17 -11 0 -15 -2 -15 -10 -2 -9 13 -14 7 -11 -12 2 -12 -6 -9 -25 10
-17 16 -17 16 -11 0 3 -10 2 -20 -3 -23 -6 -4 -10 0 -10 7 0 9 -3 9 -10 -2 -5
-8 -10 -11 -10 -6 0 5 -6 3 -14 -3 -11 -9 -15 -9 -19 1 -3 8 -6 6 -6 -6 -1
-15 -4 -16 -16 -6 -13 11 -14 10 -9 -3 4 -12 0 -15 -20 -13 -14 2 -26 -1 -26
-6 0 -5 -4 -6 -10 -3 -5 3 -10 0 -10 -7 0 -9 -3 -9 -10 2 -8 12 -10 12 -10 -5
0 -15 -2 -17 -9 -6 -7 11 -11 10 -20 -5 -6 -12 -14 -15 -18 -9 -13 16 -33 16
-27 0 4 -10 0 -13 -15 -10 -12 2 -21 -1 -21 -7 0 -6 -3 -8 -7 -5 -3 4 -12 2
-19 -3 -6 -6 -16 -10 -20 -9 -23 4 -35 -2 -28 -13 5 -9 2 -9 -9 1 -12 9 -17
10 -17 2 0 -7 -4 -9 -10 -6 -5 3 -10 2 -10 -4 0 -6 -7 -8 -15 -5 -8 4 -15 1
-15 -5 0 -6 -5 -11 -11 -11 -5 0 -8 4 -4 9 3 5 0 13 -6 17 -8 4 -9 3 -5 -4 8
-13 -30 -36 -44 -27 -6 4 -13 -1 -16 -10 -5 -12 -10 -13 -20 -4 -11 9 -15 8
-20 -5 -3 -9 -10 -16 -16 -16 -5 0 -6 6 -2 13 4 6 -1 5 -12 -4 -10 -9 -25 -14
-32 -12 -7 3 -20 -3 -28 -13 -9 -11 -12 -12 -8 -4 6 12 4 13 -7 3 -7 -7 -24
-13 -37 -13 -13 0 -21 -4 -18 -9 3 -5 -6 -8 -20 -8 -15 0 -30 -7 -35 -14 -7
-11 -9 -11 -9 -1 0 7 -5 10 -10 7 -6 -4 -7 -11 -4 -17 5 -7 1 -7 -12 0 -14 8
-21 6 -32 -6 -9 -12 -11 -12 -6 -2 7 13 5 13 -9 2 -9 -8 -21 -11 -27 -7 -5 3
-10 1 -10 -6 0 -7 -3 -9 -7 -6 -3 4 -12 2 -20 -4 -7 -6 -13 -8 -13 -3 0 5 -5
2 -10 -6 -8 -13 -10 -13 -10 -1 0 11 -4 9 -15 -5 -9 -12 -14 -14 -15 -6 0 7
-5 10 -10 7 -6 -4 -8 -10 -5 -15 3 -5 -6 -7 -20 -4 -14 2 -25 0 -25 -5 0 -6
-7 -7 -17 -4 -12 5 -14 3 -8 -7 6 -10 4 -12 -8 -7 -9 3 -18 1 -21 -6 -3 -9 -5
-9 -5 1 -1 6 -6 12 -12 12 -5 0 -7 -4 -4 -10 3 -5 -2 -11 -12 -12 -10 0 -22
-2 -28 -3 -5 -2 -16 -3 -23 -4 -7 0 -10 -6 -7 -12 4 -6 1 -10 -6 -8 -29 3 -50
-1 -44 -10 3 -6 -6 -8 -20 -5 -14 2 -25 0 -25 -6 0 -6 -4 -8 -10 -5 -5 3 -10
2 -10 -4 0 -6 -7 -7 -17 -4 -11 4 -14 3 -9 -6 5 -8 0 -10 -18 -7 -20 4 -26 0
-26 -12 0 -13 -2 -14 -9 -4 -6 11 -10 10 -15 -5 -7 -17 -8 -17 -22 1 -11 16
-14 17 -14 4 0 -9 -7 -19 -16 -22 -9 -3 -12 -2 -9 4 4 6 -9 2 -28 -9 -19 -11
-38 -17 -41 -14 -3 4 -6 1 -6 -5 0 -6 -6 -9 -14 -6 -8 3 -17 1 -21 -5 -3 -6
-17 -11 -30 -11 -13 0 -27 -5 -30 -11 -4 -6 -14 -8 -22 -5 -8 3 -11 1 -8 -4 3
-6 -3 -10 -15 -10 -12 0 -19 -4 -16 -9 3 -4 -6 -7 -19 -5 -14 1 -23 -2 -19 -7
3 -5 -6 -9 -21 -9 -14 0 -28 -6 -31 -13 -3 -8 -15 -13 -27 -12 -12 1 -25 -2
-28 -7 -3 -5 -15 -11 -25 -12 -10 -2 -18 -9 -16 -15 2 -9 -3 -9 -17 -2 -14 8
-22 7 -31 -4 -7 -8 -27 -17 -46 -21 -21 -4 -34 -12 -34 -21 0 -12 -3 -13 -14
-4 -11 9 -15 9 -19 -1 -4 -10 -7 -10 -15 1 -8 11 -11 10 -16 -6 -3 -10 -15
-19 -26 -20 -11 -1 -34 -12 -51 -23 -16 -12 -33 -19 -36 -16 -3 3 -13 -3 -20
-14 -8 -11 -18 -18 -23 -15 -5 3 -25 -4 -45 -15 -20 -11 -41 -17 -47 -14 -7 4
-8 2 -4 -4 6 -11 -6 -16 -26 -13 -5 0 -8 -3 -8 -9 0 -5 -7 -6 -17 -3 -11 4
-14 3 -9 -5 5 -8 0 -12 -13 -12 -11 0 -23 -5 -26 -10 -4 -6 -11 -8 -16 -5 -5
4 -9 1 -9 -5 0 -7 -7 -9 -16 -6 -8 3 -12 2 -9 -4 3 -6 -3 -10 -14 -10 -12 0
-21 -5 -21 -11 0 -6 -7 -9 -15 -5 -8 3 -15 1 -15 -4 0 -9 -39 -25 -54 -22 -5
2 -6 -3 -3 -11 4 -10 -2 -13 -19 -11 -13 1 -22 -1 -19 -6 3 -4 -7 -11 -21 -14
-15 -4 -35 -17 -46 -29 -11 -12 -17 -16 -13 -9 3 6 2 12 -3 12 -6 0 -12 -7
-16 -15 -3 -8 -10 -15 -16 -15 -6 0 -8 6 -5 13 4 6 -2 1 -13 -12 -10 -13 -24
-21 -30 -17 -6 3 -14 1 -18 -5 -4 -8 -3 -9 4 -5 7 4 12 5 12 2 0 -3 -10 -10
-21 -17 -17 -9 -20 -8 -14 3 3 7 0 5 -8 -4 -8 -10 -22 -18 -32 -18 -11 0 -15
-5 -11 -16 3 -8 2 -13 -3 -10 -9 6 -71 -21 -71 -30 0 -3 5 -2 12 2 7 4 8 3 4
-5 -6 -9 -11 -9 -21 -1 -10 8 -18 4 -35 -17 -12 -15 -19 -21 -15 -13 4 10 2 9
-8 -2 -16 -20 -32 -25 -21 -6 4 7 3 8 -4 4 -7 -4 -12 -14 -12 -21 0 -9 -6 -12
-15 -9 -9 4 -15 0 -15 -10 0 -9 -3 -15 -7 -14 -17 3 -43 -15 -36 -25 4 -6 0
-8 -9 -5 -8 4 -21 -2 -28 -12 -7 -10 -19 -16 -26 -13 -7 2 -15 -5 -19 -18 -6
-17 -9 -19 -16 -8 -7 11 -9 10 -9 -4 0 -10 -5 -15 -11 -12 -5 4 -18 -2 -27
-12 -9 -11 -25 -22 -35 -26 -10 -4 -15 -11 -12 -17 3 -6 -1 -7 -9 -4 -9 3 -16
1 -16 -6 0 -6 -4 -9 -9 -5 -5 3 -12 -4 -16 -15 -4 -11 -11 -18 -16 -15 -5 4
-12 -1 -15 -10 -5 -11 -10 -13 -19 -5 -10 8 -13 6 -11 -7 1 -13 -6 -18 -22
-17 -16 1 -20 -2 -12 -10 7 -9 -1 -16 -25 -25 -21 -7 -33 -17 -29 -23 5 -8 1
-9 -10 -5 -9 4 -15 3 -13 -1 2 -4 -8 -18 -21 -32 -14 -14 -22 -18 -17 -10 4 8
-6 0 -23 -17 -17 -18 -36 -33 -42 -33 -6 0 -8 -5 -4 -11 4 -7 1 -10 -7 -7 -7
2 -28 -11 -46 -30 -18 -18 -37 -31 -43 -27 -6 4 -7 -1 -3 -11 4 -12 3 -15 -5
-10 -7 4 -12 2 -12 -4 0 -6 -5 -8 -12 -4 -8 5 -9 2 -5 -9 4 -10 2 -16 -6 -14
-7 1 -11 -3 -10 -9 1 -7 -5 -11 -15 -10 -11 1 -16 -5 -14 -18 2 -11 -1 -17 -9
-14 -7 2 -26 -8 -41 -24 -15 -15 -33 -28 -40 -28 -10 0 -10 -2 0 -9 11 -7 10
-10 -3 -15 -9 -3 -21 -3 -26 0 -5 3 -9 2 -8 -3 3 -20 -2 -33 -13 -30 -7 1 -12
-6 -12 -15 1 -10 -2 -16 -6 -13 -5 3 -17 -6 -28 -20 -11 -13 -22 -21 -26 -18
-3 3 -6 -2 -6 -11 0 -12 -5 -16 -15 -12 -8 3 -14 1 -12 -3 1 -5 -11 -24 -28
-42 -16 -19 -29 -37 -28 -41 2 -4 -5 -4 -15 -1 -9 3 -14 3 -10 -2 9 -9 -31
-47 -42 -40 -5 3 -6 -4 -3 -15 4 -14 1 -20 -8 -18 -8 2 -13 -3 -11 -10 1 -8
-2 -11 -7 -7 -12 7 -33 -29 -23 -40 4 -5 2 -5 -4 -2 -7 4 -15 0 -18 -9 -4 -10
-12 -14 -24 -9 -13 4 -14 3 -6 -5 9 -9 5 -18 -13 -36 -13 -13 -28 -24 -34 -24
-6 0 -8 -4 -4 -9 3 -6 -4 -15 -15 -21 -12 -6 -19 -18 -16 -25 3 -9 -1 -12 -13
-10 -15 3 -17 -1 -13 -17 3 -12 1 -19 -4 -16 -5 3 -17 -3 -26 -14 -10 -10 -15
-18 -10 -18 4 0 -2 -7 -12 -15 -11 -8 -17 -15 -13 -15 4 0 -1 -10 -12 -22 -11
-11 -17 -26 -14 -32 3 -6 3 -8 -1 -4 -10 8 -48 -30 -41 -42 3 -5 0 -12 -6 -16
-8 -5 -9 -3 -4 6 5 9 4 11 -3 6 -7 -4 -12 -14 -12 -22 0 -8 -7 -14 -16 -14 -8
0 -12 -5 -9 -10 3 -6 -1 -13 -9 -16 -9 -3 -13 -10 -10 -15 3 -5 0 -9 -6 -9 -6
0 -9 -4 -6 -9 3 -5 -1 -11 -9 -15 -8 -3 -15 -16 -15 -28 0 -19 -2 -20 -10 -8
-8 13 -10 12 -10 -2 0 -10 -5 -18 -11 -18 -5 0 -7 -4 -4 -10 3 -5 2 -10 -4
-10 -10 0 -27 -39 -22 -54 1 -5 -5 -4 -13 3 -13 11 -15 9 -11 -9 3 -16 0 -20
-11 -16 -8 3 -13 2 -9 -3 7 -13 -5 -42 -15 -36 -5 3 -11 1 -15 -5 -3 -5 0 -10
7 -10 7 0 2 -7 -10 -16 -12 -8 -22 -22 -22 -30 0 -8 -7 -17 -15 -20 -8 -4 -12
-10 -9 -15 3 -5 0 -9 -5 -9 -6 0 -10 -6 -9 -12 2 -7 -2 -12 -9 -11 -7 2 -10
-4 -7 -12 4 -8 1 -15 -6 -15 -6 0 -8 -4 -5 -10 3 -6 1 -10 -4 -10 -6 0 -11
-10 -11 -22 0 -19 -2 -20 -10 -8 -8 13 -10 13 -10 -2 0 -24 -35 -80 -44 -71
-4 4 -4 1 -1 -8 3 -8 -4 -25 -15 -37 -12 -12 -18 -27 -15 -32 3 -6 -1 -10 -11
-10 -13 0 -14 -3 -4 -15 10 -12 9 -15 -4 -15 -10 0 -14 -5 -11 -10 3 -6 -1
-13 -9 -16 -9 -3 -16 -10 -16 -16 0 -5 6 -6 13 -3 6 4 4 0 -5 -8 -10 -8 -18
-19 -18 -26 0 -6 -4 -11 -10 -11 -5 0 -7 -6 -4 -14 3 -7 -2 -16 -11 -20 -9 -3
-14 -10 -10 -16 3 -5 -3 -18 -14 -29 -13 -13 -16 -23 -10 -27 8 -4 7 -9 -2
-15 -8 -5 -14 -16 -14 -26 -1 -10 -6 -17 -13 -16 -6 2 -9 -4 -6 -12 4 -8 1
-15 -5 -15 -6 0 -8 -7 -4 -17 4 -11 3 -14 -6 -9 -8 5 -10 0 -7 -18 3 -18 1
-23 -9 -20 -9 4 -13 -2 -11 -20 2 -14 -1 -26 -5 -26 -5 0 -9 -7 -9 -15 0 -8
-5 -15 -12 -15 -6 0 -8 -3 -5 -6 3 -4 2 -15 -3 -25 -6 -10 -11 -29 -12 -43 -1
-13 -5 -23 -9 -20 -4 2 -10 -3 -13 -12 -9 -22 -8 -26 5 -19 6 4 5 -2 -2 -13
-7 -12 -18 -18 -24 -14 -5 3 -4 -2 4 -11 10 -13 10 -17 1 -17 -7 0 -10 -7 -6
-15 3 -8 1 -15 -4 -15 -5 0 -6 -7 -3 -17 4 -10 2 -14 -5 -9 -6 3 -13 2 -17 -4
-3 -5 -1 -10 6 -10 9 0 9 -4 -1 -15 -6 -8 -9 -19 -5 -25 3 -5 1 -10 -5 -10 -6
0 -9 -4 -5 -9 3 -5 0 -13 -6 -17 -8 -4 -7 -9 2 -15 10 -6 10 -9 2 -9 -6 0 -10
-9 -8 -19 2 -12 -1 -18 -8 -15 -8 3 -12 -10 -12 -40 0 -24 -3 -42 -7 -40 -3 2
-9 0 -13 -6 -3 -5 -1 -10 6 -10 9 0 9 -4 -1 -15 -6 -8 -9 -19 -5 -25 3 -5 1
-10 -6 -10 -10 0 -10 -3 -2 -11 12 -12 6 -42 -6 -34 -4 2 -7 -14 -6 -35 1 -22
-1 -40 -4 -40 -3 0 -7 -10 -8 -22 -6 -81 -16 -134 -26 -140 -8 -5 -5 -8 8 -8
12 0 16 -3 9 -8 -6 -4 -10 -15 -8 -24 1 -10 -3 -18 -9 -18 -8 0 -7 -3 2 -9 9
-6 10 -11 2 -15 -8 -5 -8 -13 -1 -26 6 -10 6 -21 2 -24 -5 -3 -9 -52 -9 -109
0 -57 -3 -109 -7 -115 -4 -7 -3 -12 2 -12 5 0 7 -16 5 -36 -3 -27 -1 -34 9
-28 7 5 5 -5 -6 -20 -10 -16 -13 -25 -7 -22 6 4 11 1 11 -8 0 -8 -6 -17 -12
-19 -10 -4 -10 -6 0 -6 7 -1 10 -6 6 -13 -4 -6 -3 -8 3 -5 6 4 13 -2 16 -13 3
-11 2 -18 -3 -15 -4 3 -11 -2 -14 -11 -3 -8 -2 -12 4 -9 9 6 15 -22 11 -52 -1
-7 4 -13 11 -13 8 0 9 -3 3 -8 -16 -11 -18 -35 -3 -29 8 3 14 -2 14 -13 0 -10
-4 -16 -9 -13 -5 3 -5 -2 0 -12 6 -10 8 -26 6 -36 -3 -11 -1 -19 5 -19 5 0 12
-7 15 -14 4 -10 1 -13 -8 -10 -12 5 -12 0 1 -26 9 -17 13 -34 10 -37 -3 -3 2
-12 12 -19 16 -13 16 -13 -3 -14 -19 0 -19 -1 2 -15 18 -13 20 -20 12 -47 -5
-17 -6 -34 -4 -37 3 -2 5 1 5 8 0 7 5 9 10 6 6 -4 8 -11 5 -16 -4 -5 -3 -9 2
-9 4 0 9 -12 10 -27 0 -15 6 -29 12 -31 9 -3 9 -8 0 -18 -8 -10 -8 -14 0 -14
6 0 11 -7 11 -15 0 -8 6 -15 13 -15 8 0 7 -4 -3 -10 -10 -6 -11 -10 -2 -10 6
0 11 -6 10 -12 -2 -7 3 -12 11 -10 12 3 12 0 1 -12 -8 -11 -9 -16 -1 -16 6 0
11 -9 11 -20 0 -11 4 -20 9 -20 6 0 8 -9 6 -20 -3 -13 2 -20 12 -20 11 0 14
-6 10 -21 -3 -11 0 -22 7 -25 6 -2 13 -14 13 -26 1 -12 7 -24 14 -28 6 -4 12
-20 12 -34 0 -20 2 -24 12 -16 11 9 12 7 8 -9 -3 -12 -1 -21 6 -21 6 0 11 -7
11 -15 0 -8 5 -15 10 -15 6 0 10 -11 10 -24 0 -13 12 -36 28 -51 15 -16 20
-25 12 -21 -9 4 -8 2 3 -7 9 -8 17 -20 17 -26 0 -7 5 -9 13 -5 9 6 9 4 -1 -8
-11 -14 -10 -18 7 -27 12 -7 18 -17 15 -26 -5 -11 -2 -13 12 -8 13 5 16 3 11
-9 -3 -10 0 -19 10 -22 8 -4 13 -13 10 -21 -4 -8 2 -16 14 -20 10 -4 17 -11
14 -16 -4 -5 -1 -9 4 -9 6 0 11 -7 11 -15 0 -8 7 -15 16 -15 8 0 12 -4 9 -10
-3 -5 -1 -10 5 -10 6 0 8 -5 5 -10 -3 -5 1 -10 9 -10 9 0 16 -9 16 -20 0 -11
3 -19 8 -18 4 2 8 -1 9 -6 0 -5 8 -13 17 -18 9 -5 16 -17 16 -26 0 -15 2 -15
10 -2 9 13 10 13 10 0 0 -8 11 -27 25 -42 14 -15 25 -32 25 -38 0 -5 4 -10 9
-10 5 0 12 -8 15 -18 4 -11 17 -25 31 -32 13 -7 22 -17 19 -22 -3 -4 0 -8 6
-8 15 0 41 -26 33 -34 -4 -3 1 -6 10 -6 9 0 17 -7 17 -16 0 -8 5 -12 10 -9 9
6 15 -8 11 -29 -1 -5 5 -3 14 4 13 11 14 10 9 -5 -5 -11 -4 -16 3 -12 5 3 16
-5 23 -18 7 -14 22 -27 32 -31 10 -3 16 -10 13 -15 -4 -5 1 -9 9 -9 9 0 16 -7
16 -17 0 -9 3 -14 6 -10 4 3 15 -4 25 -16 14 -16 19 -18 19 -7 1 9 5 6 10 -7
5 -13 17 -23 25 -23 9 0 13 -5 10 -10 -3 -6 1 -10 9 -10 9 0 16 -4 16 -10 0
-5 6 -10 14 -10 7 0 21 -11 30 -25 9 -14 20 -23 25 -21 4 3 14 -4 21 -15 8
-10 21 -19 28 -19 8 0 12 -6 9 -14 -4 -11 -1 -13 10 -9 12 5 14 3 8 -7 -5 -8
-4 -11 3 -6 6 3 13 2 17 -4 4 -6 11 -7 17 -4 6 4 9 3 6 -2 -3 -5 0 -14 7 -21
11 -10 15 -10 18 0 4 9 6 9 6 0 1 -7 8 -13 17 -13 8 0 12 -4 9 -10 -3 -5 -1
-11 4 -11 6 -1 16 -2 21 -3 6 0 10 -5 9 -10 -1 -9 21 -26 34 -26 5 0 5 6 1 13
-5 8 -2 8 9 -2 19 -15 23 -26 5 -15 -7 4 -8 3 -4 -4 4 -7 17 -12 28 -12 12 0
18 -3 15 -7 -8 -7 39 -33 60 -33 8 0 11 -4 8 -10 -4 -6 5 -10 20 -10 15 0 24
-4 20 -10 -5 -8 7 -12 31 -9 3 0 17 -12 32 -28 18 -19 24 -22 19 -9 -7 17 -6
17 10 5 10 -8 24 -20 32 -27 7 -7 20 -11 27 -8 8 3 14 1 14 -4 0 -6 9 -10 20
-10 11 0 20 -5 20 -11 0 -6 7 -8 16 -5 8 3 13 2 10 -3 -3 -5 6 -8 21 -8 14 0
30 -8 35 -17 5 -9 14 -14 19 -10 5 3 15 1 22 -5 7 -5 26 -12 42 -15 15 -3 32
-11 37 -18 6 -10 8 -10 8 2 0 13 1 13 10 0 9 -13 10 -13 10 0 0 10 3 11 8 4 4
-6 15 -10 24 -9 9 2 19 -2 21 -9 3 -6 20 -12 38 -11 19 0 40 -7 47 -15 8 -8
11 -9 7 -3 -8 16 7 17 23 1 8 -8 15 -8 27 2 8 7 15 8 15 2 0 -5 11 -9 25 -10
15 0 22 5 18 12 -3 6 3 3 14 -7 11 -9 23 -14 28 -10 4 5 5 2 1 -4 -4 -7 -14
-13 -22 -13 -8 0 -27 -12 -41 -27 -15 -16 -23 -22 -19 -15 11 18 -9 15 -25 -5
-12 -14 -12 -16 0 -8 9 5 12 4 7 -3 -3 -6 -15 -9 -26 -7 -14 3 -17 -1 -13 -12
4 -10 2 -14 -4 -10 -5 3 -28 -7 -51 -24 -23 -17 -43 -29 -45 -27 -6 5 -36 -29
-30 -35 3 -4 -4 -4 -16 -2 -12 2 -19 0 -16 -6 6 -8 -8 -13 -27 -10 -4 0 -4 -7
-1 -16 4 -11 3 -14 -5 -9 -7 4 -12 2 -12 -3 0 -6 -6 -11 -14 -11 -8 0 -22 -7
-30 -16 -9 -8 -20 -13 -25 -9 -5 3 -13 0 -17 -6 -5 -8 -3 -9 6 -4 9 5 11 4 6
-3 -4 -7 -14 -12 -22 -12 -8 0 -14 -5 -14 -11 0 -5 -5 -7 -10 -4 -6 3 -13 -1
-16 -10 -4 -9 -13 -14 -20 -11 -8 3 -14 -1 -14 -10 0 -8 -5 -12 -10 -9 -5 3
-10 1 -10 -5 0 -6 -4 -8 -10 -5 -5 3 -10 1 -10 -4 0 -6 -3 -10 -7 -10 -20 3
-34 -2 -29 -10 3 -5 -4 -11 -15 -14 -14 -4 -18 -10 -13 -19 6 -10 4 -10 -9 1
-15 12 -18 10 -26 -10 -5 -13 -10 -21 -10 -16 -1 4 -15 0 -31 -8 -19 -10 -28
-20 -24 -28 4 -7 4 -9 -1 -5 -4 4 -15 2 -23 -5 -13 -10 -14 -9 -7 2 5 10 4 12
-3 7 -7 -4 -12 -14 -12 -21 0 -9 -6 -12 -17 -8 -10 4 -14 2 -10 -4 4 -6 0 -14
-9 -17 -10 -4 -13 -2 -8 6 4 7 3 8 -4 4 -7 -4 -12 -15 -12 -24 0 -15 -2 -15
-10 -2 -7 12 -10 12 -10 1 0 -8 -6 -11 -16 -7 -12 5 -15 2 -10 -10 4 -12 2
-15 -9 -10 -8 3 -15 1 -15 -5 0 -6 -4 -8 -9 -4 -5 3 -16 -4 -24 -16 -11 -15
-16 -17 -20 -7 -4 10 -6 10 -6 1 -1 -7 -7 -13 -15 -13 -8 0 -17 -7 -20 -16 -3
-8 -10 -12 -16 -9 -6 3 -13 0 -16 -9 -3 -9 -12 -12 -21 -9 -11 4 -14 2 -9 -5
4 -7 2 -12 -4 -12 -7 0 -26 -10 -43 -22 -17 -12 -27 -16 -23 -9 7 10 4 10 -12
0 -12 -7 -18 -17 -16 -21 3 -4 -4 -8 -15 -8 -12 0 -21 -4 -21 -10 0 -5 -7 -6
-17 -3 -10 4 -14 2 -10 -4 4 -6 -5 -14 -20 -18 -15 -3 -39 -15 -54 -25 -14
-11 -29 -17 -33 -13 -3 3 -6 -1 -6 -9 0 -11 -8 -15 -25 -14 -13 2 -22 -1 -19
-5 3 -5 0 -9 -6 -9 -6 0 -9 -4 -6 -8 3 -5 -1 -9 -9 -9 -8 0 -12 5 -9 11 3 6
-1 3 -9 -6 -8 -10 -17 -15 -20 -11 -4 3 -9 -1 -13 -10 -3 -9 -12 -13 -19 -11
-7 3 -20 -5 -29 -18 -11 -15 -16 -17 -16 -8 -1 12 -3 11 -11 -3 -5 -9 -16 -17
-23 -17 -8 0 -26 -7 -42 -14 -15 -8 -32 -12 -37 -9 -6 3 -7 1 -3 -5 6 -11 -12
-17 -37 -13 -4 0 -7 -7 -8 -16 0 -11 -3 -13 -6 -6 -3 10 -8 9 -20 -2 -8 -8
-18 -13 -23 -10 -4 3 -11 -2 -14 -11 -3 -8 -10 -12 -16 -9 -5 3 -10 2 -10 -4
0 -6 -6 -8 -14 -5 -8 3 -24 -4 -35 -15 -12 -12 -21 -16 -21 -9 0 6 -7 3 -16
-8 -8 -10 -12 -13 -9 -5 5 9 0 8 -18 -4 -15 -9 -31 -14 -37 -10 -5 3 -10 2
-10 -2 0 -14 -78 -45 -92 -37 -7 5 -9 2 -5 -9 4 -11 1 -15 -14 -12 -10 2 -19
0 -19 -5 0 -5 -9 -7 -20 -5 -11 2 -18 1 -16 -4 3 -4 -9 -12 -25 -18 -24 -9
-29 -9 -22 1 4 6 1 5 -7 -4 -8 -8 -23 -14 -33 -12 -9 2 -20 -4 -23 -13 -5 -12
-9 -13 -20 -4 -11 9 -14 8 -14 -1 0 -7 -7 -10 -15 -6 -8 3 -14 0 -12 -6 1 -7
-13 -12 -35 -12 -20 0 -34 -4 -32 -8 5 -8 -4 -10 -44 -11 -13 0 -21 -5 -19
-11 3 -7 -10 -11 -33 -12 -21 -1 -46 -5 -56 -9 -11 -5 -30 -9 -44 -11 -41 -3
-41 -4 -35 -14 3 -5 -1 -10 -10 -10 -10 0 -13 5 -9 13 6 9 5 9 -8 0 -8 -7 -18
-10 -21 -6 -4 3 -7 1 -7 -4 0 -6 -12 -10 -26 -8 -14 1 -32 -4 -40 -12 -9 -10
-14 -11 -14 -2 0 8 -5 8 -17 -2 -15 -12 -16 -12 -8 1 8 13 7 13 -9 1 -15 -13
-19 -13 -27 0 -8 12 -13 6 -11 -12 1 -4 -8 -4 -20 -1 -16 4 -19 2 -13 -9 7
-12 6 -12 -7 -1 -13 10 -17 10 -21 0 -4 -11 -6 -11 -6 0 -1 10 -6 10 -22 1
-16 -8 -20 -8 -14 1 5 9 2 10 -11 3 -11 -5 -38 -9 -61 -9 -23 1 -39 -3 -36 -8
4 -5 -1 -6 -10 -3 -54 22 -53 22 -38 4 8 -10 9 -17 3 -17 -6 0 -13 4 -16 9 -7
11 -25 9 -45 -3 -11 -7 -12 -6 -6 5 7 11 6 12 -6 3 -16 -12 -29 -12 -46 -1 -7
5 -13 5 -13 0 0 -11 -61 -10 -79 1 -10 6 -12 5 -7 -3 5 -8 0 -10 -18 -7 -20 4
-24 1 -19 -12 6 -15 4 -15 -10 -4 -9 8 -22 10 -28 6 -7 -4 -28 -9 -47 -10 -19
-1 -38 -7 -42 -13 -3 -6 -17 -13 -29 -16 -13 -2 -31 -13 -40 -24 -14 -16 -20
-18 -30 -8 -7 7 -12 8 -11 2 5 -25 -1 -37 -16 -31 -8 3 -13 2 -9 -3 7 -12 -5
-42 -15 -36 -4 3 -11 -7 -14 -20 -4 -14 -11 -23 -16 -20 -6 3 -10 2 -10 -4 0
-5 6 -12 13 -14 9 -4 9 -6 0 -6 -7 -1 -13 -7 -13 -15 0 -8 -6 -17 -12 -19 -10
-4 -10 -8 1 -15 11 -8 12 -14 4 -24 -12 -14 -12 -76 0 -95 4 -6 2 -15 -4 -19
-8 -5 -9 -3 -4 6 5 9 4 11 -4 6 -9 -6 -9 -11 -1 -21 6 -7 13 -26 16 -41 3 -16
10 -34 15 -41 6 -7 7 -18 3 -24 -4 -8 -3 -9 4 -5 7 4 12 1 12 -7 0 -8 7 -18
16 -21 9 -4 14 -13 10 -22 -3 -8 -2 -12 4 -9 11 7 32 -29 22 -40 -4 -5 -2 -5
5 -1 7 4 17 -2 23 -14 8 -14 17 -19 28 -15 9 3 13 3 10 -1 -8 -8 16 -34 31
-34 6 0 11 -4 11 -10 0 -5 11 -10 25 -10 15 0 25 -6 25 -14 0 -9 7 -12 20 -9
11 3 20 0 20 -6 0 -6 5 -11 11 -11 5 0 7 6 4 13 -4 6 1 3 9 -7 12 -15 16 -16
16 -5 1 11 4 10 14 -3 7 -10 16 -14 20 -10 11 10 30 9 39 -3 4 -6 10 -5 17 5
8 12 10 12 10 1 0 -9 8 -12 25 -9 13 3 23 2 21 -1 -2 -3 13 -6 35 -7 25 0 34
3 26 9 -8 6 -4 7 10 4 13 -3 23 -2 23 3 0 4 8 7 18 7 50 0 67 4 54 12 -9 5 -3
8 20 9 58 1 68 3 68 11 0 5 12 9 26 9 14 0 31 5 37 12 9 10 9 11 -2 5 -10 -5
-12 -4 -7 4 4 6 13 8 19 4 18 -11 46 -11 44 1 -2 10 4 12 39 15 8 0 13 5 10
10 -3 4 5 8 17 7 12 -1 28 5 35 14 8 8 10 9 7 2 -6 -11 -3 -11 13 -1 12 7 18
18 14 24 -3 5 1 4 10 -3 13 -10 17 -10 22 4 4 9 9 14 12 11 3 -3 22 3 41 14
19 11 32 15 28 9 -3 -5 -1 -10 4 -10 6 0 11 7 11 17 0 9 3 14 6 10 3 -3 22 3
41 14 19 11 32 15 28 9 -3 -6 0 -7 9 -4 9 3 13 11 9 17 -4 6 2 8 15 5 12 -4
25 -1 29 4 4 7 1 8 -7 3 -9 -5 -11 -4 -6 4 4 6 12 9 17 6 5 -4 15 -3 22 2 6 4
19 8 27 10 8 1 16 6 18 12 2 5 11 7 19 4 12 -5 15 -2 10 10 -6 15 -4 16 14 6
17 -9 20 -8 14 2 -6 9 -3 11 9 6 10 -4 15 -3 11 3 -7 12 35 31 49 22 5 -3 6 0
2 6 -6 11 6 16 27 13 4 0 7 4 7 10 0 6 7 9 15 5 13 -5 19 5 17 25 -1 4 8 5 18
2 11 -3 20 0 20 6 0 6 12 11 26 11 18 0 25 4 21 14 -4 10 0 12 14 9 11 -3 19
0 19 6 0 7 4 10 9 7 5 -3 12 2 15 11 6 15 8 15 16 3 8 -13 10 -12 10 3 0 11 4
15 12 11 6 -4 16 -1 22 7 6 8 16 14 21 15 29 3 56 18 52 28 -3 7 4 12 17 12
12 -1 20 4 18 12 -2 10 2 10 20 1 13 -6 20 -8 16 -4 -9 10 16 35 35 35 8 0 20
7 27 15 7 8 17 12 23 8 7 -4 8 0 3 12 -5 14 -4 15 7 7 10 -9 16 -7 27 8 7 10
17 17 22 14 4 -3 8 -1 8 5 0 5 9 8 21 6 17 -3 18 -1 10 9 -9 11 -8 14 6 12 10
0 17 4 16 11 -2 7 3 10 11 7 15 -6 61 20 84 46 12 13 13 13 6 0 -6 -11 -2 -10
13 3 11 9 23 14 26 10 4 -3 7 1 7 10 0 11 7 15 20 12 11 -2 18 0 15 6 -4 5 -1
9 4 9 20 0 26 3 37 18 7 9 16 12 24 7 9 -5 11 -4 6 3 -4 7 -2 12 4 12 6 0 8 5
4 13 -5 7 0 6 11 -3 17 -14 18 -13 12 2 -4 12 -2 15 7 12 8 -3 17 0 21 5 3 6
11 8 17 5 7 -4 8 -2 4 4 -8 13 30 36 49 29 7 -3 12 1 11 11 0 9 10 18 24 22
14 4 24 13 22 20 -2 11 0 10 14 -1 10 -8 15 -9 11 -2 -4 7 1 14 13 18 11 4 18
10 16 14 -3 4 5 8 17 8 12 1 30 12 40 25 10 13 16 17 12 11 -4 -9 -1 -11 9 -7
9 3 13 10 10 15 -3 5 0 9 5 9 22 0 26 2 34 16 4 8 13 14 19 14 6 0 17 8 24 18
13 16 14 16 7 -2 -6 -19 -6 -19 14 0 11 10 18 22 16 26 -2 4 2 5 10 2 8 -3 18
0 22 5 3 6 12 8 18 4 7 -4 5 2 -3 12 -8 10 -10 16 -4 12 6 -3 22 0 37 8 14 7
28 10 32 7 3 -4 3 2 -1 12 -6 16 -4 18 14 14 13 -4 20 -2 19 6 -1 6 6 10 15
10 10 -1 15 2 13 7 -5 7 36 36 43 30 2 -2 7 1 10 5 4 4 1 4 -7 -1 -9 -5 -12
-4 -7 3 4 7 16 12 27 12 11 0 17 5 14 10 -3 6 1 10 10 10 9 0 13 4 10 10 -3 6
1 7 10 4 10 -4 25 4 40 20 14 15 29 25 34 22 5 -3 12 1 15 10 3 9 12 14 19 11
6 -2 24 9 40 24 15 16 27 25 27 21 0 -4 5 1 11 11 6 9 14 15 19 12 4 -3 11 2
14 11 3 8 10 13 15 10 5 -3 11 1 15 9 3 8 12 15 21 15 8 0 15 5 15 11 0 6 7 9
15 5 8 -3 14 -2 14 2 -3 18 2 32 12 32 5 0 7 -5 3 -12 -4 -7 -3 -8 4 -4 7 4
12 14 12 22 0 8 5 12 10 9 6 -3 13 0 16 9 3 8 12 12 20 9 8 -3 14 1 14 11 0 9
6 15 12 14 7 -2 12 2 11 9 -2 7 3 10 10 7 7 -2 23 7 35 21 13 14 27 23 32 20
6 -3 10 2 10 11 0 10 3 14 7 11 3 -4 12 1 20 11 12 16 13 16 7 -3 -3 -12 2 -8
11 8 10 18 22 26 31 23 8 -3 13 -2 11 2 -2 4 4 15 15 24 10 10 18 15 18 11 0
-4 7 3 16 15 8 12 22 22 30 22 8 0 14 4 14 9 0 5 9 11 20 14 11 3 20 9 19 14
-4 20 2 24 18 12 9 -8 14 -9 10 -3 -3 6 4 17 15 25 12 8 30 22 40 31 10 10 25
18 33 18 8 0 15 5 15 11 0 5 -5 7 -12 3 -7 -4 -8 -3 -4 4 4 7 12 12 18 12 6 0
17 8 25 18 9 11 12 12 8 2 -4 -8 5 -1 19 16 14 18 37 35 51 38 14 4 24 12 22
19 -1 6 6 11 15 11 9 -1 14 4 12 11 -3 7 0 16 7 21 8 5 10 3 4 -6 -5 -7 3 -5
17 6 14 10 24 22 22 25 -2 4 7 10 21 13 16 4 22 11 19 21 -4 10 0 15 13 15 18
0 62 36 56 46 -9 13 -1 14 14 3 9 -8 14 -9 10 -3 -4 7 2 23 14 35 11 13 18 17
14 9 -4 -8 3 -4 14 10 11 14 21 21 21 15 0 -5 7 1 15 15 8 14 14 21 15 16 0
-4 18 10 39 32 22 22 42 38 45 34 3 -3 6 2 6 12 0 9 4 15 8 12 5 -3 14 4 22
14 8 10 17 17 22 14 4 -3 8 2 8 11 0 9 5 13 10 10 6 -3 10 -2 10 2 0 5 7 18
16 29 8 10 12 12 8 4 -4 -8 21 14 56 50 35 36 67 64 72 62 7 -2 12 19 10 39
-1 4 6 6 16 5 9 0 16 4 15 11 -2 8 4 10 14 6 9 -4 14 -2 11 3 -6 11 28 45 36
36 3 -3 6 1 6 10 0 16 45 60 53 51 3 -2 8 5 12 16 3 12 11 19 16 16 5 -4 9 1
9 9 0 10 6 13 17 9 9 -4 14 -2 10 3 -3 6 3 16 13 24 10 8 16 18 13 24 -4 5 1
7 10 3 11 -4 17 -1 17 9 0 9 5 12 12 8 8 -5 9 -2 5 9 -3 10 -3 17 1 17 4 0 26
18 49 39 23 22 45 36 49 33 4 -4 4 1 0 12 -5 14 -3 17 10 12 12 -4 15 -2 10 9
-4 10 1 15 16 15 12 0 19 3 15 6 -6 6 35 50 44 47 4 -1 6 5 5 15 0 9 5 16 12
14 7 -1 17 9 24 23 6 13 15 22 20 19 4 -3 11 3 15 12 8 21 40 54 52 54 5 0 13
9 16 20 4 11 11 18 16 14 5 -3 9 -2 8 3 -4 15 13 43 22 37 5 -3 9 2 9 11 0 8
11 20 25 25 14 6 23 15 19 23 -2 7 6 19 21 27 14 7 23 15 21 18 -9 8 35 42 46
36 6 -4 8 -3 5 3 -8 13 22 55 33 48 5 -3 7 3 5 14 -3 15 0 18 12 14 11 -4 14
-2 9 5 -4 7 -2 12 4 12 6 0 8 5 4 12 -5 8 -2 9 11 5 14 -6 16 -3 12 12 -3 13
-1 18 8 15 7 -3 16 0 21 7 5 8 3 10 -7 5 -8 -4 -3 2 10 13 12 12 28 18 35 14
6 -4 4 1 -3 11 -13 16 -13 17 5 14 13 -2 18 2 16 15 -2 11 4 17 15 17 15 0 16
2 3 10 -13 8 -12 10 3 10 9 0 17 7 17 16 0 8 5 12 10 9 6 -3 10 1 10 10 0 8 7
18 15 21 8 4 15 12 15 20 0 8 7 14 15 14 8 0 14 3 13 8 -4 10 45 58 56 54 5
-2 3 5 -5 14 -8 10 -9 15 -4 13 12 -7 46 26 38 35 -4 3 1 6 10 6 10 0 17 8 17
20 0 10 9 24 20 30 11 6 20 18 20 26 0 9 5 12 12 8 8 -5 9 -2 5 9 -3 9 -3 16
1 16 18 -3 33 2 28 9 -7 11 21 45 32 38 5 -3 8 5 7 19 -2 17 1 22 11 18 9 -3
14 0 12 8 -2 8 3 13 10 11 8 -1 11 2 7 8 -3 5 9 24 27 41 18 18 26 28 18 23
-8 -4 0 7 18 25 17 18 30 37 26 42 -3 5 0 8 8 7 7 -2 12 3 10 10 -1 6 3 12 8
12 6 0 15 10 20 23 5 14 9 16 10 7 1 -8 5 -4 9 10 4 14 13 24 20 22 7 -1 9 2
6 9 -4 6 3 20 15 31 12 11 19 27 15 35 -5 14 -3 14 12 2 11 -9 14 -10 9 -1 -4
6 -3 12 3 12 6 0 7 8 4 17 -5 13 -2 15 12 10 16 -7 16 -5 4 10 -8 9 -9 14 -4
11 6 -3 19 4 30 16 22 22 25 28 25 48 0 6 3 8 7 5 8 -9 44 44 37 55 -3 4 2 8
11 8 9 0 14 4 11 9 -3 5 1 12 10 15 9 3 14 13 11 21 -4 8 2 16 14 20 10 4 17
11 14 16 -4 5 -1 9 4 9 6 0 11 7 11 16 0 8 5 12 10 9 9 -6 15 16 11 39 -1 5 6
3 16 -4 10 -8 15 -11 11 -6 -9 11 19 66 33 66 6 0 8 4 4 9 -3 5 -1 12 5 16 6
4 8 11 5 16 -4 5 2 6 12 2 10 -3 15 -3 11 2 -9 10 10 47 21 40 5 -2 8 3 7 13
0 9 4 16 11 15 7 -2 10 4 7 12 -4 8 -1 15 6 15 6 0 8 4 5 10 -3 5 -2 10 4 10
5 0 12 9 16 20 3 11 21 34 38 52 18 17 26 28 18 24 -8 -6 -7 0 4 18 10 14 22
26 27 26 5 0 6 5 3 10 -3 6 -2 10 3 10 5 0 12 9 15 21 3 12 10 18 16 14 7 -3
8 0 5 9 -4 9 -1 16 6 16 7 0 10 7 6 16 -4 10 -2 13 6 8 8 -5 9 -2 4 11 -5 15
-4 16 9 5 9 -7 15 -9 14 -4 -4 13 24 84 33 84 4 0 8 7 8 15 0 9 7 18 16 22 8
3 13 12 10 19 -3 9 0 11 12 7 15 -6 15 -5 3 10 -13 17 -7 22 20 19 4 -1 5 8 2
18 -4 17 -2 19 13 13 17 -6 17 -5 5 10 -12 16 -8 22 13 18 5 -1 6 7 3 18 -3
11 -2 20 2 19 3 0 13 0 21 1 13 1 13 2 0 11 -12 8 -12 10 3 16 9 3 17 12 17
20 0 8 4 14 9 14 5 0 15 16 21 35 7 21 16 32 22 29 6 -4 8 -2 4 4 -3 6 1 17 9
26 8 8 14 21 13 28 -2 7 3 12 10 11 6 -2 12 6 12 17 0 11 4 20 9 20 5 0 13 10
17 23 3 12 15 34 25 49 14 20 16 28 7 31 -7 3 -3 6 9 6 16 1 21 6 18 21 -3 14
2 20 13 20 14 0 15 2 2 10 -12 8 -12 10 3 16 9 3 14 10 11 15 -3 5 0 9 6 9 6
0 8 5 5 10 -3 6 1 10 10 10 9 0 13 5 9 11 -3 6 6 24 22 40 15 16 23 29 17 29
-6 0 -14 -6 -16 -12 -4 -10 -6 -10 -6 0 -1 7 6 15 14 18 8 4 13 10 10 14 -3 4
3 11 12 14 15 6 15 8 3 16 -13 8 -12 10 3 10 16 0 19 4 21 33 2 18 20 36 31
29 6 -3 3 3 -5 13 -8 10 -10 16 -4 12 13 -8 27 19 19 34 -4 5 1 6 9 3 11 -4
16 0 16 14 0 11 7 27 15 35 8 8 11 17 8 21 -4 3 -1 6 7 6 10 0 10 3 0 15 -11
13 -10 14 3 9 11 -4 15 0 12 13 -1 10 6 28 17 40 12 12 17 27 13 34 -5 7 -4
10 3 5 6 -3 13 -2 17 4 3 5 1 10 -4 10 -6 0 -2 9 9 20 18 18 22 26 19 46 0 3
10 14 22 25 15 13 17 19 8 19 -10 1 -10 4 3 14 14 10 15 15 5 26 -8 9 -9 11 0
6 14 -7 46 51 36 67 -4 6 0 8 10 4 12 -4 14 -2 10 10 -4 10 -2 14 4 10 7 -5 9
0 6 13 -3 12 0 20 6 20 7 0 10 4 6 9 -3 6 3 15 14 21 12 6 18 18 16 30 -2 11
4 24 13 30 13 7 14 9 3 10 -11 0 -9 4 5 15 15 11 16 15 4 15 -8 1 -5 5 9 11
20 8 22 11 10 26 -10 12 -10 14 -1 9 7 -4 12 -1 12 9 0 9 4 14 9 11 4 -3 7 6
5 19 -1 14 2 23 6 20 5 -3 11 -1 15 5 3 5 1 10 -5 10 -6 0 -8 5 -5 10 4 6 12
7 18 3 8 -4 8 -2 -1 9 -10 13 -10 17 4 22 10 4 14 12 10 22 -4 11 -2 15 8 11
10 -4 12 0 9 14 -3 10 0 19 6 19 6 0 11 5 11 11 0 5 -6 7 -12 3 -14 -9 10 26
27 38 6 4 7 8 2 8 -4 0 2 18 13 40 11 22 17 40 13 40 -4 0 2 7 13 16 10 8 12
12 4 8 -13 -7 -13 -5 -2 9 8 9 10 22 6 28 -4 8 -3 9 4 5 11 -6 16 6 13 27 0 4
3 7 9 7 5 0 7 7 4 15 -4 8 -2 15 3 15 13 0 16 -70 3 -86 -7 -7 -9 -18 -5 -24
3 -5 1 -10 -5 -10 -7 0 -10 -7 -7 -15 4 -8 2 -17 -4 -21 -6 -3 -8 -12 -5 -20
3 -8 2 -14 -3 -14 -5 0 -8 -8 -7 -17 0 -11 -5 -17 -13 -15 -12 3 -12 0 -1 -12
7 -10 8 -16 2 -16 -6 0 -9 -9 -7 -20 2 -11 -1 -20 -7 -20 -7 0 -6 -5 1 -14 10
-11 8 -16 -5 -24 -10 -6 -15 -16 -11 -25 3 -9 2 -17 -4 -19 -5 -2 -12 -14 -15
-28 -3 -14 -6 -29 -7 -35 -2 -5 -7 -16 -11 -24 -7 -10 -5 -12 5 -6 8 5 5 -2
-6 -15 -12 -14 -14 -20 -5 -15 13 8 13 6 2 -8 -8 -9 -10 -22 -6 -28 5 -8 3 -9
-5 -5 -8 5 -11 3 -10 -5 2 -8 -2 -24 -9 -36 -7 -13 -10 -23 -6 -23 4 0 -1 -9
-10 -19 -11 -13 -14 -21 -7 -26 8 -4 6 -11 -4 -22 -10 -9 -13 -23 -9 -35 4
-14 2 -18 -5 -14 -12 8 -13 5 -15 -38 -1 -16 -7 -31 -13 -33 -7 -3 -9 -11 -6
-19 3 -8 0 -14 -6 -14 -6 0 -11 -5 -11 -11 0 -5 6 -7 13 -4 6 4 3 -1 -8 -10
-11 -9 -19 -18 -17 -20 6 -11 1 -26 -7 -21 -4 3 -7 -6 -5 -19 1 -14 -3 -25 -9
-25 -7 0 -5 -5 3 -10 13 -9 13 -10 0 -11 -8 -1 -19 -1 -23 0 -4 1 -3 -8 3 -19
8 -14 8 -20 0 -20 -6 0 -8 -4 -5 -10 3 -5 0 -10 -7 -10 -9 0 -9 -3 2 -10 12
-7 12 -10 1 -10 -7 0 -11 -6 -7 -15 3 -8 1 -15 -5 -15 -6 0 -8 -7 -5 -16 3 -8
2 -12 -4 -9 -6 3 -10 -3 -10 -14 0 -11 -5 -32 -12 -48 -6 -15 -11 -31 -10 -35
1 -5 -3 -8 -10 -8 -6 0 -9 -3 -5 -6 3 -4 0 -19 -9 -35 -8 -16 -15 -32 -15 -36
-1 -5 -6 -7 -12 -5 -6 2 -5 -4 3 -12 8 -11 9 -16 1 -16 -6 0 -11 -9 -11 -21 0
-13 -4 -18 -12 -13 -7 4 -10 4 -6 -1 4 -4 2 -15 -5 -23 -9 -13 -9 -14 1 -8 6
4 12 3 12 -2 0 -6 -7 -12 -15 -16 -8 -3 -15 -14 -15 -24 0 -10 -6 -24 -12 -31
-11 -11 -10 -12 2 -6 11 6 10 3 -3 -12 -9 -11 -14 -23 -10 -26 3 -4 1 -7 -5
-7 -6 0 -9 -11 -6 -27 5 -27 5 -27 -11 -8 -9 11 -14 15 -11 9 8 -16 -5 -75
-15 -69 -4 3 -8 -3 -8 -12 1 -26 -27 -97 -39 -101 -6 -2 -8 -10 -5 -19 4 -9
-1 -21 -11 -28 -11 -8 -13 -15 -7 -20 7 -4 4 -14 -8 -27 -11 -11 -18 -29 -16
-39 2 -10 -1 -18 -8 -16 -6 1 -12 -4 -13 -10 -1 -7 -3 -16 -4 -20 -1 -5 -2
-11 -1 -15 0 -5 -3 -8 -7 -8 -5 0 -15 -18 -22 -40 -7 -22 -17 -40 -22 -40 -5
0 -6 -4 -3 -10 3 -5 1 -10 -6 -10 -7 0 -9 -3 -6 -7 4 -3 1 -13 -6 -21 -10 -13
-9 -15 3 -8 12 6 11 4 -1 -6 -9 -7 -14 -19 -11 -26 2 -7 0 -12 -5 -11 -20 4
-24 -2 -12 -18 10 -11 10 -14 2 -9 -9 5 -13 0 -13 -14 0 -11 -7 -23 -15 -26
-8 -4 -15 -10 -15 -16 0 -5 6 -6 13 -2 6 4 4 -2 -5 -13 -10 -11 -18 -25 -18
-31 0 -7 -5 -12 -11 -12 -6 0 -8 -7 -5 -15 3 -9 -1 -18 -10 -22 -8 -3 -13 -11
-10 -19 3 -7 -2 -18 -10 -25 -9 -7 -13 -21 -11 -31 3 -10 1 -16 -4 -12 -12 7
-31 -44 -22 -59 4 -7 -1 -6 -10 2 -15 12 -17 12 -11 -3 4 -11 0 -22 -12 -31
-11 -8 -15 -15 -10 -15 5 0 2 -8 -5 -17 -12 -15 -12 -16 1 -8 8 4 5 -2 -7 -14
-25 -24 -30 -36 -10 -26 6 4 3 -1 -7 -9 -11 -9 -16 -16 -12 -16 5 0 3 -7 -4
-15 -7 -8 -17 -12 -22 -9 -6 4 -5 -3 1 -14 9 -17 7 -23 -9 -35 -11 -7 -17 -17
-13 -20 3 -4 1 -7 -5 -7 -7 0 -11 -3 -10 -7 4 -15 -13 -53 -24 -53 -5 0 -8 -6
-5 -14 3 -8 -1 -17 -9 -20 -9 -3 -12 -10 -9 -16 3 -5 1 -10 -5 -10 -6 0 -8 -4
-5 -10 3 -5 1 -10 -5 -10 -6 0 -9 -4 -6 -9 3 -5 -1 -11 -9 -15 -8 -3 -12 -12
-9 -21 3 -8 1 -15 -6 -15 -6 0 -8 -5 -5 -10 3 -5 0 -10 -8 -10 -11 0 -13 -7
-9 -22 4 -16 2 -20 -10 -15 -11 4 -15 0 -14 -11 2 -9 -4 -23 -13 -30 -12 -10
-12 -12 -1 -6 12 6 13 5 3 -7 -6 -8 -11 -17 -10 -21 1 -3 -2 -10 -7 -15 -5 -5
-6 -3 -2 5 4 6 3 12 -2 12 -15 0 -22 -28 -9 -34 7 -2 4 -5 -6 -5 -10 -1 -15
-5 -12 -11 3 -6 0 -10 -7 -10 -9 0 -9 -3 2 -10 13 -8 12 -10 -2 -10 -10 0 -18
-4 -18 -10 0 -21 -2 -25 -16 -33 -8 -4 -14 -14 -14 -22 0 -7 -6 -16 -12 -18
-10 -4 -10 -6 0 -6 10 -1 10 -4 0 -15 -7 -8 -17 -11 -22 -8 -5 3 -6 0 -3 -5 4
-6 -3 -23 -15 -39 -13 -15 -17 -24 -10 -20 11 7 11 4 1 -12 -7 -12 -17 -18
-22 -15 -5 3 -8 0 -5 -8 2 -7 -3 -22 -13 -32 -10 -11 -16 -27 -14 -37 3 -13
-1 -17 -11 -13 -8 3 -14 -1 -14 -11 0 -9 -6 -16 -12 -16 -9 0 -8 -4 2 -10 13
-8 12 -10 -3 -10 -10 0 -15 -4 -12 -10 3 -6 1 -10 -5 -10 -6 0 -8 -4 -5 -10 3
-5 2 -10 -4 -10 -5 0 -13 -10 -16 -22 -4 -13 -17 -31 -29 -41 -11 -10 -14 -16
-6 -12 8 4 4 -3 -10 -15 -14 -12 -19 -19 -11 -15 9 5 8 -1 -4 -19 -10 -14 -22
-26 -27 -26 -5 0 -6 -5 -3 -10 3 -6 0 -13 -9 -16 -8 -3 -12 -12 -10 -19 3 -8
-4 -16 -17 -20 -15 -5 -18 -10 -9 -15 9 -5 7 -11 -8 -21 -10 -8 -19 -18 -19
-23 0 -5 -10 -19 -22 -32 -12 -13 -20 -28 -17 -33 3 -5 -1 -12 -10 -15 -9 -4
-14 -9 -11 -12 2 -3 -6 -17 -19 -31 -13 -14 -24 -32 -24 -39 0 -8 -8 -14 -17
-15 -12 0 -13 -2 -5 -6 9 -3 7 -10 -9 -24 -12 -10 -19 -19 -16 -19 4 0 -2 -9
-13 -20 -12 -12 -18 -25 -15 -31 4 -5 3 -8 -2 -7 -4 2 -9 -1 -10 -5 -1 -5 -10
-15 -20 -22 -10 -7 -19 -18 -19 -24 -1 -6 -2 -16 -3 -22 0 -5 -6 -7 -13 -3 -8
5 -9 2 -5 -9 3 -10 2 -17 -4 -17 -6 0 -7 -6 -3 -12 6 -10 4 -10 -8 0 -13 11
-16 10 -14 -5 0 -10 -4 -17 -11 -16 -7 2 -10 -4 -7 -12 4 -8 -1 -17 -9 -21 -9
-3 -13 -12 -10 -20 3 -9 0 -14 -8 -12 -8 2 -13 -3 -11 -10 1 -7 -5 -15 -13
-18 -8 -3 -12 -10 -9 -15 3 -5 -2 -9 -11 -9 -10 0 -15 -6 -12 -13 3 -7 -4 -19
-14 -26 -11 -6 -24 -23 -29 -37 -6 -14 -14 -23 -19 -20 -5 3 -8 -2 -7 -12 0
-9 -5 -16 -12 -14 -8 1 -11 -2 -7 -8 3 -5 1 -10 -6 -10 -7 0 -10 -3 -6 -6 9
-9 -16 -33 -28 -26 -5 3 -3 -3 5 -14 8 -10 10 -16 6 -12 -9 8 -46 -28 -46 -44
0 -5 -5 -6 -11 -2 -7 4 -10 1 -7 -7 5 -16 -18 -43 -31 -35 -4 3 -7 -6 -5 -19
1 -14 -2 -23 -7 -19 -5 3 -9 -2 -9 -11 0 -9 -4 -13 -10 -10 -5 3 -10 2 -10 -4
0 -6 -12 -22 -27 -37 -16 -15 -21 -23 -13 -20 9 5 8 2 -2 -7 -10 -8 -18 -20
-18 -26 0 -7 -4 -9 -10 -6 -5 3 -10 1 -10 -5 0 -6 -4 -9 -9 -6 -5 3 -8 -2 -7
-12 0 -9 -4 -16 -10 -15 -5 1 -16 -8 -24 -20 -11 -19 -11 -21 1 -12 8 6 7 3
-3 -7 -10 -9 -18 -22 -18 -30 0 -10 -3 -9 -10 2 -8 12 -10 11 -10 -5 0 -11 -9
-27 -19 -35 -11 -7 -18 -17 -15 -22 3 -4 -2 -8 -11 -8 -11 0 -15 -5 -11 -15 3
-8 2 -14 -2 -12 -10 3 -51 -40 -44 -47 3 -3 0 -6 -6 -6 -7 0 -12 -8 -12 -17 0
-15 -2 -16 -10 -3 -7 12 -10 12 -10 1 0 -17 -46 -72 -54 -64 -3 4 -6 -4 -6
-16 0 -12 -4 -19 -10 -16 -5 3 -10 2 -10 -3 0 -5 -12 -21 -26 -35 -16 -16 -23
-31 -18 -39 5 -8 1 -8 -11 2 -10 8 -16 10 -12 3 4 -6 3 -14 -3 -18 -6 -4 -7
-12 -3 -18 4 -7 -2 -5 -12 3 -11 9 -16 10 -11 3 4 -7 3 -13 -2 -13 -6 0 -9 -8
-8 -17 1 -12 -5 -17 -18 -15 -14 3 -17 -1 -12 -14 4 -10 4 -15 0 -12 -3 4 -16
-4 -29 -17 -12 -14 -25 -22 -29 -18 -4 4 -4 -1 0 -11 5 -13 4 -17 -4 -12 -6 3
-13 2 -17 -4 -3 -5 0 -10 7 -10 10 0 9 -3 -2 -9 -8 -6 -17 -8 -22 -5 -4 2 -12
-5 -18 -16 -16 -30 -53 -66 -64 -62 -5 2 -3 -5 5 -14 12 -16 12 -17 -3 -11
-13 4 -18 1 -18 -11 0 -15 -2 -15 -10 -2 -8 13 -10 12 -10 -3 0 -12 -4 -16
-12 -11 -8 5 -7 0 2 -11 8 -10 10 -16 3 -12 -7 4 -16 0 -22 -10 -6 -10 -11
-15 -11 -11 0 5 -8 0 -18 -10 -11 -9 -17 -21 -14 -26 3 -5 -2 -7 -11 -3 -12 4
-14 2 -10 -10 5 -12 3 -14 -7 -8 -10 6 -12 4 -6 -10 6 -16 4 -16 -11 -4 -11 9
-14 10 -9 2 4 -8 2 -13 -4 -13 -6 0 -8 -5 -4 -12 5 -8 2 -9 -10 -5 -9 4 -15 3
-12 -1 3 -5 -8 -21 -25 -36 -16 -15 -26 -32 -23 -37 3 -5 2 -9 -3 -8 -22 4
-35 -2 -30 -15 4 -10 0 -14 -13 -11 -11 2 -19 1 -19 -3 3 -19 -2 -32 -13 -32
-7 0 -31 -21 -55 -47 -24 -25 -43 -43 -43 -38 0 4 -14 -6 -30 -24 -17 -17 -35
-31 -40 -31 -6 0 -10 -5 -10 -11 0 -5 5 -7 12 -3 7 4 8 3 4 -5 -4 -6 -12 -9
-17 -6 -5 4 -9 1 -9 -4 0 -6 -5 -10 -12 -9 -7 2 -12 -3 -13 -10 0 -7 -6 -16
-13 -21 -11 -7 -11 -11 2 -24 9 -8 16 -21 16 -27 0 -6 5 -8 10 -5 6 3 10 -3
10 -15 0 -12 5 -18 10 -15 6 3 10 -3 10 -15 0 -12 5 -18 10 -15 6 3 10 -4 10
-15 0 -16 4 -20 16 -16 8 3 12 2 9 -4 -3 -5 7 -21 22 -36 16 -14 22 -23 14
-19 -9 5 -12 4 -7 -3 4 -7 14 -12 23 -12 10 0 13 -6 9 -16 -3 -8 -2 -12 4 -9
6 3 10 1 10 -5 0 -6 5 -8 10 -5 9 6 14 -8 11 -27 -1 -8 13 -11 25 -5 3 1 15
-14 27 -34 13 -21 28 -34 36 -31 10 3 12 0 8 -12 -5 -11 -1 -16 13 -16 18 0
25 -10 21 -32 0 -4 6 -5 14 -2 8 4 15 1 15 -6 0 -6 5 -8 10 -5 6 3 10 -1 10
-9 0 -10 6 -13 18 -9 9 3 14 3 10 -2 -8 -9 15 -35 31 -35 6 0 11 -4 11 -9 0
-5 9 -11 21 -14 14 -4 18 -10 13 -18 -5 -9 -2 -10 9 -6 17 7 41 -15 29 -28 -4
-5 -2 -5 5 -2 6 4 18 1 26 -7 9 -10 18 -11 26 -5 6 5 9 7 7 3 -8 -11 39 -50
51 -41 7 5 15 1 23 -12 6 -12 16 -20 23 -18 7 1 11 -3 10 -8 -1 -6 8 -12 19
-12 12 -1 24 -7 28 -12 3 -6 18 -12 33 -13 17 -1 27 -8 27 -18 0 -13 1 -13 10
0 8 13 10 12 10 -3 0 -10 4 -16 9 -13 5 3 22 -4 37 -16 19 -15 24 -17 15 -5
-12 15 -12 17 3 11 9 -3 16 -10 16 -15 0 -5 6 -8 13 -7 6 2 11 -2 10 -9 -2 -7
6 -10 17 -8 11 2 20 -1 20 -7 0 -6 6 -5 16 2 12 11 15 11 12 -1 -2 -10 6 -14
29 -13 17 0 31 -5 30 -10 -1 -6 8 -10 20 -10 13 1 20 -2 18 -6 -3 -4 2 -11 11
-14 23 -9 26 -8 18 6 -4 7 8 1 26 -12 18 -13 30 -17 25 -9 -7 11 -6 12 7 2 8
-7 18 -10 21 -6 4 3 7 1 7 -6 0 -7 5 -9 10 -6 6 3 10 2 10 -4 0 -6 7 -7 17 -4
11 4 14 3 9 -5 -5 -8 -1 -11 11 -10 42 3 64 -2 57 -14 -5 -9 -2 -9 9 1 11 8
17 9 17 3 0 -7 16 -10 40 -8 32 3 38 1 30 -10 -9 -9 -7 -12 7 -9 10 1 26 -2
37 -7 12 -7 16 -7 12 0 -4 6 2 8 14 5 11 -3 20 -10 20 -17 0 -6 5 -4 10 4 7
12 10 12 10 1 0 -7 6 -11 14 -8 7 3 18 1 24 -5 10 -10 81 -19 142 -18 19 0 22
-2 10 -10 -12 -7 -10 -9 7 -7 12 0 20 4 18 7 -2 4 2 7 10 7 8 0 12 -3 10 -7
-3 -4 32 -8 77 -9 47 -1 88 -7 97 -14 12 -9 13 -9 7 1 -9 15 25 17 41 1 8 -8
13 -7 18 2 6 8 4 10 -5 4 -8 -5 -11 -4 -6 3 7 11 31 6 54 -11 9 -7 11 -6 7 6
-6 13 -1 14 29 7 20 -4 36 -5 36 -1 0 3 21 6 48 5 26 0 53 4 61 10 11 8 13 8
7 -1 -4 -7 -2 -13 3 -13 6 0 11 5 11 11 0 8 5 8 15 -1 12 -10 16 -9 20 2 4 9
16 14 32 12 15 -1 36 2 46 8 11 5 17 6 14 1 -4 -5 0 -10 8 -10 8 0 12 4 9 9
-3 4 -1 8 5 8 5 0 12 -6 14 -12 3 -8 6 -6 6 4 1 11 6 15 15 12 8 -3 24 -1 35
6 15 8 21 8 21 0 0 -6 5 -8 10 -5 6 4 8 10 6 14 -3 4 15 7 39 6 25 0 41 3 38
9 -4 5 1 7 11 3 11 -5 15 -3 10 5 -5 7 0 9 14 6 12 -4 22 -2 22 4 0 5 5 6 10
3 6 -3 10 -2 10 4 0 6 6 8 14 5 8 -3 17 0 21 5 3 6 10 9 15 6 5 -3 20 0 32 7
13 7 27 11 31 10 4 -1 10 5 13 13 4 8 10 15 16 15 5 0 7 -4 4 -8 -2 -4 4 -8
14 -8 10 0 18 3 18 6 0 3 0 12 1 20 1 13 2 13 12 0 7 -11 12 -12 15 -3 3 7 12
9 21 6 11 -4 14 -2 9 5 -4 7 -2 13 3 13 6 1 14 3 19 4 4 2 17 6 29 10 13 4 20
11 18 16 -3 4 4 6 15 4 11 -2 20 0 20 6 0 5 12 9 26 9 19 0 25 4 21 14 -4 10
-1 13 9 9 8 -3 21 0 29 7 8 6 19 9 25 5 6 -4 9 -1 8 7 -2 7 5 12 14 12 10 -1
16 3 15 10 -1 6 4 10 11 8 6 -1 12 3 12 10 0 6 3 8 7 5 3 -4 18 3 31 15 14 13
22 16 18 8 -4 -8 -1 -7 7 3 9 10 18 18 21 18 20 -3 26 0 21 9 -6 9 17 15 40
10 6 -1 7 1 3 5 -8 9 16 35 31 35 6 0 11 5 11 10 0 6 6 9 13 8 6 -2 11 3 9 11
-3 12 -1 12 14 0 12 -9 15 -9 10 -1 -4 7 -1 12 8 12 9 0 15 6 14 13 -2 7 6 12
19 11 13 -1 20 2 18 6 -3 4 2 11 11 14 9 3 12 11 8 18 -5 8 0 7 11 -2 17 -14
18 -13 12 3 -6 15 3 22 26 18 4 0 7 6 7 14 0 9 8 19 18 22 9 4 23 15 30 25 7
10 17 16 22 13 5 -3 13 2 18 11 5 9 13 15 18 15 5 -1 10 4 10 9 3 23 5 24 14
10 8 -13 10 -12 10 3 0 9 3 16 8 15 4 -2 9 2 12 7 7 15 52 55 62 55 5 0 7 4 4
9 -3 4 4 17 17 27 21 19 21 19 7 -1 -9 -13 -4 -11 12 5 14 14 23 28 21 33 -2
4 3 7 11 7 9 0 16 7 16 16 0 10 5 14 16 10 8 -3 13 -2 10 2 -6 11 50 73 58 65
3 -4 6 1 6 9 0 9 7 19 16 22 9 3 14 13 11 21 -4 9 -1 12 9 8 7 -3 14 -1 14 3
0 5 14 24 31 42 16 17 27 37 24 42 -4 6 1 7 12 3 10 -3 15 -3 11 2 -4 4 4 19
18 32 14 12 22 28 19 33 -6 9 8 15 29 11 5 -1 4 4 -3 13 -9 11 -9 16 0 22 8 5
9 3 4 -7 -8 -12 -6 -12 8 -1 9 8 15 19 14 25 -1 7 4 11 12 9 9 -2 12 4 8 17
-3 13 -1 18 8 15 7 -3 16 0 21 7 5 8 3 10 -7 5 -8 -4 -4 1 8 12 12 11 19 22
16 26 -4 3 -1 6 6 6 7 0 11 6 8 14 -4 10 0 14 12 11 13 -2 17 3 16 18 -1 12 9
32 22 44 12 12 23 28 23 36 0 8 10 22 23 31 12 9 15 14 7 11 -8 -4 -4 3 10 15
14 12 18 19 10 15 -8 -4 -5 2 8 13 12 11 22 25 22 30 0 5 7 15 15 22 9 7 14
19 11 27 -3 7 -1 13 4 13 6 0 10 7 10 15 0 8 5 15 10 15 6 0 10 7 10 15 0 8 5
15 11 15 6 0 9 7 5 15 -3 8 -1 15 5 15 6 0 9 7 5 15 -7 18 10 20 18 3 4 -7 4
-3 2 9 -2 12 2 24 10 27 8 3 13 11 12 18 -2 7 2 12 8 11 6 -1 10 9 8 23 -1 13
2 22 7 18 5 -3 9 2 9 10 0 9 4 16 8 16 4 0 8 10 9 22 1 11 7 25 14 29 7 4 9
14 6 24 -4 9 -3 13 3 10 5 -3 12 6 16 20 3 14 11 22 17 18 6 -4 8 0 4 9 -3 9
1 25 9 37 8 12 12 27 8 34 -4 6 -3 8 1 4 9 -8 45 56 45 80 0 7 5 13 11 13 8 0
7 5 -1 15 -11 13 -10 14 5 8 15 -5 17 -3 12 11 -5 11 1 30 15 49 12 17 16 27
9 23 -10 -7 -11 -4 -2 12 6 11 16 23 23 25 10 4 9 6 -1 6 -11 1 -10 5 4 21 9
10 15 26 11 35 -3 9 -2 13 4 10 9 -5 14 9 8 18 -2 2 3 11 10 20 8 9 10 22 6
28 -5 8 -3 9 5 5 8 -5 12 -3 10 5 -3 25 1 40 9 35 5 -3 9 1 9 9 0 8 -5 11 -11
8 -6 -4 -2 3 8 15 11 13 14 22 7 22 -9 0 -8 4 1 14 7 8 18 11 23 8 6 -3 4 1
-3 10 -9 11 -10 18 -2 23 6 3 8 11 5 16 -4 5 0 9 7 9 16 0 19 40 3 40 -5 1 1
8 15 16 14 8 18 13 9 11 -9 -3 -16 1 -16 8 0 8 5 13 11 12 10 -2 12 5 15 44 0
11 6 17 11 14 6 -4 10 -3 9 2 -5 26 2 73 10 68 5 -3 13 0 17 6 4 8 3 9 -4 5
-7 -4 -12 -1 -12 8 0 9 5 16 12 16 9 0 9 3 1 11 -9 9 -8 16 3 27 8 8 13 21 10
28 -3 8 -1 14 5 14 6 0 7 4 4 10 -3 5 -1 18 4 28 7 13 6 23 -2 31 -9 10 -8 11
6 5 13 -5 16 -2 11 10 -4 10 -1 16 7 16 9 0 10 3 4 8 -17 12 -17 35 0 29 8 -4
15 -2 15 3 0 6 -5 10 -11 10 -5 0 -7 5 -4 10 4 6 12 7 18 4 9 -5 9 -4 0 6 -8
9 -9 19 -2 32 5 10 7 23 4 28 -3 6 -2 10 4 10 6 0 8 6 5 14 -3 8 0 17 6 21 8
5 7 11 -2 23 -10 12 -10 14 0 8 8 -5 12 0 13 16 1 21 3 35 7 76 1 8 7 10 15 6
8 -5 8 -2 -2 9 -10 13 -10 17 -1 17 7 0 10 6 7 14 -3 7 0 19 6 26 9 10 9 11
-3 5 -9 -5 -7 1 5 15 11 13 15 20 8 17 -6 -4 -14 -3 -18 3 -3 5 0 10 8 10 9 0
13 10 12 30 -1 21 3 30 14 30 14 0 14 2 1 10 -8 5 -11 10 -7 10 4 0 2 10 -4
23 -11 20 -11 21 4 9 14 -12 15 -11 11 12 -2 14 0 26 6 26 12 0 9 22 -5 32 -6
5 -4 8 5 8 13 0 13 1 0 10 -12 7 -12 10 -1 10 7 0 11 6 7 15 -3 8 -1 15 3 15
5 0 12 7 15 16 6 15 4 15 -10 3 -16 -13 -16 -12 -5 9 6 12 9 22 5 22 -3 0 -2
6 5 13 8 10 7 17 -2 27 -10 10 -9 11 2 5 11 -6 13 -4 8 8 -3 10 -2 17 2 17 5
0 7 9 4 20 -3 11 -1 26 5 33 6 7 7 18 2 27 -5 8 -2 23 8 39 10 14 12 22 5 18
-7 -5 -13 -4 -13 2 0 6 5 11 11 11 8 0 7 6 -2 17 -8 9 -9 14 -3 10 7 -4 15 0
18 9 3 8 2 12 -4 9 -6 -3 -10 -2 -10 4 0 5 3 12 8 14 4 3 7 36 7 74 0 42 5 73
13 82 10 10 10 16 1 27 -9 11 -8 14 2 14 12 0 12 2 0 9 -9 6 -10 10 -2 16 9 5
9 10 1 20 -7 9 -8 15 -1 20 6 3 9 19 7 35 -2 17 1 30 6 30 5 0 4 10 -3 21 -9
17 -8 20 2 14 9 -6 11 -3 6 8 -3 9 -2 19 4 23 7 4 6 10 -1 19 -8 10 -7 14 2
18 10 4 10 6 1 6 -7 1 -13 6 -13 12 0 5 4 8 9 4 6 -3 8 7 7 22 -2 16 1 33 6
40 6 7 5 14 -3 19 -8 5 -9 3 -4 -6 5 -9 4 -11 -4 -6 -6 4 -8 13 -4 19 5 7 8
39 9 73 0 33 4 65 7 71 4 6 1 14 -5 16 -10 4 -9 6 1 6 11 1 11 4 1 16 -10 12
-9 15 6 15 15 0 16 2 5 9 -13 8 -13 12 0 27 11 14 11 16 0 10 -9 -6 -12 -5 -9
5 3 8 1 22 -4 31 -7 14 -5 16 9 11 16 -6 16 -5 4 10 -9 12 -10 17 -2 17 7 0 9
5 4 13 -10 17 -12 57 -1 51 4 -3 8 0 8 5 0 6 -4 11 -8 11 -5 0 -9 7 -9 15 0 8
4 12 9 9 4 -3 8 0 8 5 0 6 -6 11 -12 11 -9 0 -8 4 2 10 13 9 13 10 0 10 -13 0
-13 1 0 10 13 9 13 10 0 10 -13 0 -13 1 0 10 13 9 13 10 0 10 -9 0 -11 3 -5 8
13 8 13 22 1 41 -6 10 -6 12 3 7 15 -10 11 25 -4 36 -6 5 -5 8 3 8 6 0 12 5
12 11 0 5 -6 7 -12 3 -9 -5 -9 -2 1 9 11 14 11 17 0 17 -8 0 -6 6 7 16 10 8
13 12 5 8 -11 -5 -13 -3 -8 10 6 14 3 17 -10 12 -17 -6 -17 -5 -1 7 14 11 15
16 5 27 -9 10 -9 11 1 6 6 -4 12 -3 12 3 0 5 -6 12 -12 14 -10 4 -10 6 0 6 8
1 10 6 5 14 -12 19 -12 37 -1 37 7 0 6 5 -1 14 -8 10 -9 16 -1 21 5 3 10 11
10 16 0 6 -4 8 -8 5 -5 -3 -9 1 -9 9 0 8 3 12 7 10 3 -2 6 5 6 15 0 10 -4 16
-8 14 -4 -3 -8 -1 -8 5 0 5 6 12 13 14 10 4 10 6 0 6 -7 1 -13 6 -13 12 0 5 6
7 13 3 9 -6 9 -4 -1 8 -10 13 -10 17 0 21 10 4 10 6 1 6 -7 1 -13 8 -13 17 0
9 5 12 13 8 9 -6 9 -4 1 7 -11 14 -13 42 -17 224 -2 50 -6 96 -11 104 -6 10
-5 12 2 7 7 -4 12 -2 12 3 0 6 -4 11 -8 11 -5 0 -9 7 -9 15 0 8 4 12 9 9 4 -3
8 0 8 5 0 6 -6 11 -12 11 -9 0 -8 4 2 10 12 8 12 10 -5 11 -11 0 -15 3 -9 5 7
3 9 14 6 26 -4 16 -2 19 9 14 10 -6 10 -4 -1 6 -11 9 -15 34 -15 90 0 62 -3
78 -15 79 -10 0 -8 3 5 9 11 5 15 9 9 9 -7 1 -14 15 -16 31 -3 22 -1 30 11 30
13 1 12 3 -3 11 -15 9 -16 13 -5 20 8 5 9 9 4 9 -7 0 -11 21 -10 50 1 28 -3
50 -8 50 -4 0 -5 4 -2 10 3 5 8 19 10 31 4 18 2 19 -12 7 -14 -12 -15 -11 -5
8 6 12 7 26 2 34 -6 9 -5 17 3 22 9 6 9 8 0 8 -7 0 -10 7 -7 15 4 8 0 23 -7
32 -8 9 -9 14 -4 11 6 -4 11 2 11 13 0 10 -3 19 -6 19 -3 0 -6 8 -7 18 -1 9
-4 38 -6 63 -2 25 -8 52 -12 59 -5 9 -4 11 3 6 9 -5 9 -1 3 16 -5 13 -9 26
-10 31 0 4 -2 10 -2 15 -1 4 0 15 1 26 1 12 -3 16 -10 11 -9 -6 -9 -2 -2 12 6
11 7 25 2 33 -5 9 -5 19 2 27 7 9 7 13 0 13 -11 0 -10 25 1 36 4 4 3 12 -2 18
-5 6 -11 22 -13 36 -1 14 -7 28 -13 32 -6 5 -5 8 3 8 8 0 10 5 5 13 -4 6 -8
28 -9 47 0 19 -6 46 -11 60 -8 18 -7 27 1 32 7 5 7 8 0 8 -5 0 -11 19 -13 42
-1 23 -5 45 -9 48 -4 3 -7 17 -8 33 -3 86 -4 92 -14 77 -5 -8 -10 -10 -10 -4
0 5 5 15 12 22 8 8 8 12 1 12 -5 0 -9 10 -9 23 1 12 -3 28 -8 36 -9 12 -8 13
3 6 11 -6 12 -5 5 6 -5 8 -7 22 -6 32 2 9 -2 17 -9 17 -9 0 -9 3 0 14 9 11 9
16 1 21 -7 4 -10 16 -7 26 3 11 0 19 -5 19 -7 0 -7 4 0 13 12 14 -10 52 -22
40 -4 -4 -3 5 3 20 8 19 7 27 0 27 -7 0 -6 6 2 17 8 9 9 14 2 10 -13 -8 -28
27 -19 42 4 5 0 12 -6 14 -10 4 -10 6 1 6 11 1 10 6 -3 25 -11 17 -12 27 -5
32 8 4 7 9 -2 15 -9 5 -13 25 -12 53 1 26 -2 46 -6 46 -5 0 -12 7 -15 16 -3 8
-2 12 4 9 6 -3 10 -1 10 4 0 6 -4 11 -9 11 -5 0 -7 9 -4 21 4 12 0 25 -8 30
-11 7 -11 9 -1 9 10 0 9 5 -4 17 -15 16 -15 17 2 23 16 6 17 7 0 13 -12 5 -15
13 -11 27 3 11 2 20 -3 20 -9 0 -11 9 -14 53 -1 12 -7 25 -12 29 -7 5 -5 8 4
8 13 0 13 1 0 10 -11 7 -12 10 -2 10 10 0 9 4 -2 16 -9 8 -14 20 -10 25 3 6 0
17 -8 26 -11 14 -11 16 0 9 12 -7 12 -4 2 14 -6 12 -13 36 -14 53 -2 18 -8 31
-14 30 -8 -2 -9 5 -2 23 6 14 6 23 1 20 -13 -9 -20 31 -8 43 8 8 7 11 -2 11
-7 0 -11 8 -9 18 2 11 -4 27 -12 37 -12 15 -12 17 -1 10 11 -6 12 -5 5 6 -5 8
-7 22 -6 32 2 9 -2 17 -9 17 -7 0 -9 3 -6 7 4 3 2 12 -4 20 -9 10 -8 13 2 13
10 0 10 3 1 12 -7 7 -12 23 -12 36 0 13 -4 21 -8 18 -5 -3 -9 1 -9 9 0 8 5 11
11 8 6 -4 5 1 -3 10 -7 9 -10 17 -6 17 4 0 1 7 -6 16 -16 19 -21 47 -7 38 5
-4 5 3 -2 16 -6 12 -9 24 -6 27 3 3 -2 12 -12 20 -9 8 -11 12 -4 8 14 -7 17
11 2 20 -15 9 -12 27 3 20 6 -4 2 2 -11 12 -18 15 -20 21 -10 31 9 9 9 12 -1
12 -8 0 -11 6 -7 15 3 8 2 15 -2 15 -5 0 -7 13 -6 30 1 16 -2 28 -6 25 -4 -3
-10 2 -14 10 -3 8 -1 15 5 15 6 0 7 5 2 13 -4 6 -8 19 -9 27 0 8 -4 23 -8 32
-4 9 -8 22 -10 30 -1 7 -5 19 -9 26 -5 6 -5 17 -2 22 3 6 1 10 -5 10 -7 0 -9
8 -5 20 4 11 2 20 -4 20 -6 0 -11 10 -11 23 0 13 -6 29 -12 36 -7 8 -8 11 -2
8 6 -3 11 0 11 8 0 8 -4 12 -8 9 -4 -2 -10 0 -14 6 -3 5 -1 10 5 10 6 0 8 5 5
10 -4 6 -11 7 -17 4 -7 -5 -8 -2 -2 7 13 22 13 61 -1 49 -8 -7 -11 2 -11 33 0
25 -4 41 -10 40 -6 -1 -10 11 -9 28 1 16 -2 29 -7 29 -5 0 -7 4 -3 9 3 5 -1
15 -8 23 -7 7 -12 27 -11 45 0 18 -3 30 -7 27 -10 -6 -19 23 -13 40 3 7 -2 21
-11 30 -12 12 -13 16 -3 16 8 0 9 3 3 8 -6 4 -10 17 -9 30 1 13 -4 26 -11 29
-7 2 -12 12 -10 21 1 9 -4 28 -12 41 -12 18 -12 22 -2 16 11 -6 12 -5 2 6 -7
7 -13 23 -13 36 0 13 -4 23 -10 23 -5 0 -9 3 -9 8 4 25 -2 42 -13 36 -9 -5 -8
-2 1 9 12 15 12 20 -2 35 -11 12 -13 22 -6 35 6 9 7 17 2 16 -20 -3 -24 2 -13
17 11 12 11 15 -1 12 -9 -2 -13 4 -11 16 2 13 -1 16 -10 10 -9 -5 -8 -2 2 11
12 15 12 17 1 10 -11 -6 -13 -4 -8 8 3 10 2 17 -2 17 -5 0 -7 9 -4 20 3 12 0
20 -6 20 -7 0 -10 4 -7 9 3 5 -1 12 -10 15 -22 8 -26 8 -19 -4z m-757 -3495
c-1 -19 -4 -32 -7 -29 -10 9 -9 64 1 64 5 0 8 -16 6 -35z m1652 -2729 c0 -3
-4 -8 -10 -11 -5 -3 -10 -1 -10 4 0 6 5 11 10 11 6 0 10 -2 10 -4z m-4569
-2619 c-10 -9 -11 -8 -5 6 3 10 9 15 12 12 3 -3 0 -11 -7 -18z m979 -1533 c0
-8 -19 -13 -24 -6 -3 5 1 9 9 9 8 0 15 -2 15 -3z"/>
<path d="M8865 6890 c-3 -5 -1 -10 4 -10 6 0 11 5 11 10 0 6 -2 10 -4 10 -3 0
-8 -4 -11 -10z"/>
<path d="M6165 3250 c-3 -6 1 -7 9 -4 18 7 21 14 7 14 -6 0 -13 -4 -16 -10z"/>
</g>
</svg>
